<svg width="578" height="614" viewBox="0 0 578 614" fill="none" xmlns="http://www.w3.org/2000/svg">
<circle cx="289" cy="325" r="288.5" stroke="white" stroke-dasharray="2 2"/>
<line x1="289.5" y1="2.18557e-08" x2="289.5" y2="36" stroke="white" stroke-dasharray="2 2"/>
<circle cx="289" cy="325" r="29.5" stroke="white"/>
<path d="M302.181 311.725C302.441 311.911 302.571 312.157 302.571 312.464V332.107C302.571 332.293 302.52 332.461 302.418 332.609C302.316 332.758 302.181 332.865 302.013 332.93L293.085 336.502C292.862 336.604 292.638 336.604 292.415 336.502L283.821 333.07L275.228 336.502C275.135 336.548 275.023 336.571 274.893 336.571C274.716 336.571 274.549 336.52 274.391 336.418C274.13 336.232 274 335.985 274 335.679V316.036C274 315.85 274.051 315.682 274.153 315.533C274.256 315.385 274.391 315.278 274.558 315.213L283.487 311.641C283.71 311.539 283.933 311.539 284.156 311.641L292.75 315.073L301.344 311.641C301.641 311.52 301.92 311.548 302.181 311.725ZM284.268 313.608V331.326L292.304 334.535V316.817L284.268 313.608ZM275.786 316.636V334.353L283.375 331.326V313.608L275.786 316.636ZM300.786 331.507V313.79L293.196 316.817V334.535L300.786 331.507Z" fill="white"/>
<line x1="412" y1="325.5" x2="318" y2="325.5" stroke="white"/>
<line x1="257" y1="325.5" x2="195" y2="325.5" stroke="white"/>
</svg>
