<svg width="29" height="26" viewBox="0 0 29 26" fill="none" xmlns="http://www.w3.org/2000/svg">
<path d="M28.1808 0.724888C28.4412 0.910899 28.5714 1.15736 28.5714 1.46429V21.1071C28.5714 21.2932 28.5203 21.4606 28.418 21.6094C28.3157 21.7582 28.1808 21.8651 28.0134 21.9302L19.0848 25.5017C18.8616 25.604 18.6384 25.604 18.4152 25.5017L9.82143 22.0698L1.22768 25.5017C1.13467 25.5482 1.02307 25.5714 0.892857 25.5714C0.716146 25.5714 0.548735 25.5203 0.390625 25.418C0.130208 25.232 0 24.9855 0 24.6786V5.03571C0 4.8497 0.0511533 4.68229 0.15346 4.53348C0.255766 4.38467 0.390625 4.27771 0.558036 4.21261L9.48661 0.641182C9.70982 0.538876 9.93304 0.538876 10.1563 0.641182L18.75 4.0731L27.3438 0.641182C27.6414 0.520274 27.9204 0.548176 28.1808 0.724888ZM10.2679 2.60826V20.3259L18.3036 23.5346V5.81696L10.2679 2.60826ZM1.78571 5.6356V23.3532L9.375 20.3259V2.60826L1.78571 5.6356ZM26.7857 20.5073V2.78962L19.1964 5.81696V23.5346L26.7857 20.5073Z" fill="white"/>
</svg>
