<svg width="25" height="22" viewBox="0 0 25 22" fill="none" xmlns="http://www.w3.org/2000/svg">
<path d="M17.713 8.44106C17.5301 8.44106 17.3652 8.33088 17.2952 8.16189C17.2252 7.99282 17.2639 7.7983 17.3932 7.66894L21.8713 3.19132C22.0479 3.01468 22.3342 3.01468 22.5108 3.1913C22.6875 3.36792 22.6875 3.65428 22.5108 3.8309L18.0328 8.30852C17.9481 8.39349 17.833 8.44118 17.713 8.44106Z" fill="white" stroke="white" stroke-width="0.5"/>
<path d="M16.4339 7.16189C16.2511 7.16189 16.0862 7.05171 16.0161 6.88272C15.9461 6.71366 15.9848 6.51913 16.1141 6.38978L20.5922 1.91214C20.7688 1.73551 21.0552 1.73551 21.2318 1.91213C21.4084 2.08875 21.4084 2.37511 21.2318 2.55173L16.7537 7.02934C16.669 7.11431 16.5539 7.16202 16.4339 7.16189Z" fill="white" stroke="white" stroke-width="0.5"/>
<path d="M18.5099 21.7344C18.4878 21.7344 18.4657 21.7339 18.4436 21.7331C17.849 21.718 17.2875 21.4558 16.8941 21.0095L7.96978 10.9694C6.29659 11.571 4.07831 10.9027 2.44309 9.26795C1.47197 8.32945 0.819452 7.11015 0.577301 5.78153C0.334102 4.62153 0.672458 3.41584 1.48369 2.55174C2.34795 1.7408 3.55356 1.40263 4.71349 1.64578C6.04207 1.88813 7.26142 2.54043 8.20036 3.51112C9.83469 5.14635 10.5025 7.36551 9.90095 9.03827L19.941 17.963C20.6105 18.558 20.8429 19.5046 20.5251 20.3419C20.2074 21.1792 19.4055 21.7333 18.5099 21.7344ZM8.09351 9.97558C8.2228 9.97565 8.34591 10.0309 8.43183 10.1276L17.5708 20.4088C17.7993 20.6681 18.1256 20.8203 18.471 20.8289C18.8157 20.8369 19.1489 20.7046 19.3942 20.4622C19.6384 20.2182 19.771 19.8842 19.7608 19.5391C19.7506 19.1941 19.5985 18.8685 19.3403 18.6393L9.05905 9.49988C8.90772 9.36597 8.86403 9.1477 8.95215 8.96586C9.60676 7.60535 9.03432 5.62512 7.56076 4.15073C6.75725 3.31471 5.71217 2.75124 4.57214 2.53936C3.69846 2.34768 2.78603 2.5906 2.12332 3.19134C1.52085 3.85329 1.2777 4.76676 1.47136 5.64062C1.68326 6.78038 2.24675 7.82518 3.08272 8.62836C4.55715 10.1037 6.54045 10.673 7.89738 10.0202C7.9586 9.99084 8.02562 9.9756 8.09351 9.97558Z" fill="white" stroke="white" stroke-width="0.5"/>
<path d="M4.84414 21.7344C3.94856 21.7333 3.14671 21.1792 2.82897 20.3419C2.51123 19.5046 2.74362 18.558 3.41302 17.963L8.75507 13.2147C8.9417 13.0488 9.22746 13.0656 9.39335 13.2522C9.55923 13.4388 9.54242 13.7246 9.3558 13.8905L4.01374 18.6389C3.75594 18.8684 3.60415 19.1941 3.59411 19.5391C3.58408 19.8842 3.7167 20.2181 3.96073 20.4622C4.20635 20.7035 4.53881 20.8357 4.88303 20.8289C5.2285 20.8203 5.55475 20.6681 5.78324 20.4088L10.4309 15.1803C10.5968 14.9934 10.8828 14.9764 11.0696 15.1423C11.2565 15.3082 11.2735 15.5941 11.1076 15.781L6.4599 21.0095C6.06416 21.4531 5.50364 21.7146 4.90949 21.7331C4.88741 21.7339 4.86622 21.7344 4.84414 21.7344Z" fill="white" stroke="white" stroke-width="0.5"/>
<path d="M12.698 10.7667C12.5102 10.7668 12.3418 10.6508 12.2751 10.4752C12.2084 10.2996 12.2572 10.1011 12.3976 9.97645L13.4233 9.06475V7.46002C13.4218 6.85912 13.6607 6.28258 14.0867 5.85884L19.313 0.63248C19.4896 0.455842 19.776 0.455843 19.9526 0.632464C20.1292 0.809084 20.1292 1.09544 19.9526 1.27207L14.7263 6.49841C14.4704 6.75286 14.3269 7.09914 14.3279 7.46003V9.26794C14.3278 9.39711 14.2725 9.52007 14.1759 9.60585L12.9983 10.6523C12.9158 10.7262 12.8088 10.7669 12.698 10.7667Z" fill="white" stroke="white" stroke-width="0.5"/>
<path d="M14.1865 12.0891C14.0085 12.089 13.8471 11.9845 13.7742 11.8221C13.7012 11.6598 13.7302 11.4697 13.8482 11.3365L14.8164 10.2472C14.9023 10.1506 15.0254 10.0952 15.1547 10.0952H16.9631C17.3238 10.0962 17.67 9.95273 17.9242 9.69682L23.1506 4.47049C23.3272 4.29386 23.6135 4.29385 23.7902 4.47048C23.9668 4.6471 23.9668 4.93346 23.7902 5.11008L18.5638 10.3364C18.1403 10.7625 17.5638 11.0015 16.963 10.9998L15.3579 10.9998L14.5249 11.9372C14.4391 12.034 14.3159 12.0893 14.1865 12.0891Z" fill="white" stroke="white" stroke-width="0.5"/>
</svg>
