<svg width="62" height="78" viewBox="0 0 62 78" fill="none" xmlns="http://www.w3.org/2000/svg">
<path d="M52.6459 45.4407L52.9178 45.8603L52.6459 45.4407L15.5661 69.4705C15.566 69.4706 15.566 69.4706 15.566 69.4706C13.4549 70.8379 11.1509 70.6229 9.35348 69.3806C7.54561 68.131 6.24309 65.8303 6.24309 63.0299V14.9701C6.24309 12.1716 7.54556 9.87076 9.35354 8.62074C11.1511 7.3779 13.4551 7.16218 15.5661 8.52953L52.6458 32.5628L52.6461 32.563C54.7909 33.9512 55.8908 36.454 55.8908 39.0005C55.8908 41.5469 54.7909 44.0507 52.6459 45.4407ZM55.2648 27.1777L55.2648 27.1777L18.185 3.14789C18.185 3.14787 18.185 3.14784 18.1849 3.14781C14.3291 0.647525 9.98265 1.01473 6.62079 3.3124C3.26612 5.60517 0.901855 9.80603 0.901855 14.9701V63.0299C0.901855 68.1957 3.26611 72.3958 6.62086 74.6877C9.98279 76.9845 14.3292 77.3507 18.1849 74.8523L17.913 74.4327L18.1849 74.8522L55.2648 50.8223L55.2648 50.8223C59.2626 48.2312 61.232 43.5925 61.232 39C61.232 34.4075 59.2626 29.7689 55.2648 27.1777Z" fill="white" stroke="white"/>
</svg>
