<svg width="34" height="25" viewBox="0 0 34 25" fill="none" xmlns="http://www.w3.org/2000/svg">
<path d="M31.7208 15.5407L28.4584 5.13406C27.9629 3.06925 26.1458 1.62389 24.0397 1.62389C22.7596 1.62389 21.562 2.16074 20.6948 3.06925C19.8275 3.97777 19.4146 5.17536 19.4972 6.41424L19.5385 7.85961H14.17L14.2113 6.33165C14.2939 5.09277 13.8809 3.89518 13.0137 2.94537C12.1465 2.03685 10.9489 1.5 9.66869 1.5C7.52129 1.5 5.70425 2.94537 5.25 4.96888L1.98761 15.4581C1.61594 16.2427 1.36816 17.1512 1.36816 18.101C1.36816 21.5286 4.1763 24.2955 7.64518 24.2955C11.1141 24.2955 13.9222 21.4873 13.9222 18.101C13.9222 17.9772 13.9222 17.8946 13.9222 17.812H13.9635L14.0874 13.3107H19.7036L19.8275 17.8946H19.8688C19.8688 17.9772 19.8688 18.101 19.8688 18.1836C19.8688 21.6112 22.677 24.3781 26.1458 24.3781C29.6147 24.3781 32.4229 21.5699 32.4229 18.1836C32.3403 17.2338 32.1338 16.3666 31.7208 15.5407ZM7.64518 23.2631C4.75445 23.2631 2.40057 20.9505 2.40057 18.101C2.40057 15.2516 4.75445 12.939 7.64518 12.939C10.5359 12.939 12.8898 15.2516 12.8898 18.101C12.8898 20.9505 10.4946 23.2631 7.64518 23.2631ZM7.64518 11.8653C6.19981 11.8653 4.83704 12.3609 3.76334 13.1868L6.24111 5.25795C6.61277 3.6474 8.01684 2.5737 9.66869 2.5737C10.6598 2.5737 11.5683 2.98666 12.229 3.6887C12.8898 4.39073 13.2202 5.29925 13.1376 6.29035L12.8898 14.7974C11.8574 13.0629 9.87517 11.8653 7.64518 11.8653ZM14.0874 12.237L14.17 8.93331H19.5385L19.6211 12.237H14.0874ZM20.5296 6.41424C20.447 5.46443 20.7773 4.51462 21.4794 3.81258C22.1401 3.11055 23.0486 2.69759 24.0397 2.69759C25.6916 2.69759 27.0957 3.81258 27.4673 5.42313L29.9451 13.3107C28.8714 12.4848 27.5499 11.9892 26.0632 11.9892C23.8333 11.9892 21.851 13.1868 20.736 14.9625L20.5296 6.41424ZM26.0632 23.3869C23.1725 23.3869 20.8186 21.0744 20.8186 18.2249C20.8186 15.3755 23.1725 13.0629 26.0632 13.0629C28.954 13.0629 31.3079 15.3755 31.3079 18.2249C31.3079 21.0744 28.954 23.3869 26.0632 23.3869Z" fill="white" stroke="white" stroke-width="1.2"/>
</svg>
